# xmcd
#
# Track frame offsets: 
#        150
#        20565
#        31475
#        43899
#        62562
#        75790
#        93319
#        110952
#        127210
#        148036
#        165987
#        176336
#
# Disc length: 2617 seconds
#
# Revision: 0
# Processed by: cddbd v1.5.2PL0 Copyright (c) Steve Scherf et al.
# Submitted via: ExactAudioCopy v1.0b3
#
DISCID=9d0a370c
DTITLE=Vader Abraham - Samen Jong, Samen Oud
DYEAR=1974
DGENRE=Country
TTITLE0=Samen Jong - Samen Oud
TTITLE1=Geluk
TTITLE2=Aan de Hemelpoort
TTITLE3=Pappie Betaal Nu Maar Gauw
TTITLE4=Kindje Droog Je Tranen Vlug
TTITLE5=Die Ene Herinnering
TTITLE6=Maar In M'n Tuin Daar Bloeit 'N Roos
TTITLE7='T Leven Is Te Kort
TTITLE8=In De C-Klasse
TTITLE9=Heimwee Naar Huis
TTITLE10=Rozemarijn
TTITLE11='T Kan Nooit Meer Gisteren Zijn
EXTD=
EXTT0=
EXTT1=
EXTT2=
EXTT3=
EXTT4=
EXTT5=
EXTT6=
EXTT7=
EXTT8=
EXTT9=
EXTT10=
EXTT11=
PLAYORDER=
